<svg width="926" height="697" viewBox="0 0 926 697" fill="none" xmlns="http://www.w3.org/2000/svg">
<g clip-path="url(#clip0)">
<path opacity="0.1" d="M779.402 136.57C785.47 194.408 832.744 242.887 877.384 275.39C892.32 286.274 908.447 297.492 917.865 315.393C929.375 337.237 927.35 362.997 919.974 382.549C906.539 418.193 876.476 440.887 841.704 441.587C811.699 442.204 779.553 427.519 749.723 429.194C699.799 431.961 666.944 479.348 645.724 529.536C630.721 565.039 616.178 606.526 582.797 615.376C559.31 621.627 531.456 609.359 507.936 590.741C496.576 581.749 485.374 570.998 472.931 567.072C465.546 564.739 458.237 565.022 451.261 566.031C387.493 575.273 345.37 641.862 280.468 646.554C236.636 649.754 188.629 623.294 149.256 585.716C109.883 548.138 77.7953 500.059 47.3739 451.846C25.754 417.585 3.7006 380.04 0.425096 341.054C-3.08377 299.8 16.2608 265.164 43.5734 247.987C70.8859 230.811 105.249 228.819 139.196 232.519C181.653 237.128 226.993 249.913 263.682 233.511C288.686 222.344 306.68 198.767 326.133 178.215C358.638 143.862 396.469 117.043 434.433 90.916C470.772 65.9139 507.778 41.2118 549.451 27.5773C578.989 17.9015 610.377 21.1685 640.723 15.5513C660.509 11.8927 676.962 0.550084 697.748 0.0583761C723.352 -0.591678 754.949 10.4176 771.001 42.8953C786.287 73.7395 776.177 105.876 779.402 136.57Z" fill="#FE46A5"/>
<path d="M658.501 11.351L601.575 7.90066L568.637 5.55047V5.49213H568.229H567.77V5.5588L390.651 19.7267H375.966L374.241 80.8568L402.753 90.9076L420.031 178.832L341.411 334.57L293.903 370.573V404.901L322.416 432.536L324.141 558.98L332.784 560.647V559.305L337.127 560.139V560.639L505.861 617.377L512.953 622.185L527.789 612.943L647.307 543.896L658.501 11.351ZM477.098 404.151L523.322 364.981L477.098 404.151ZM316.782 420.402L329.284 432.545V433.295L316.782 420.402Z" fill="url(#paint0_linear)"/>
<path d="M339.51 435.103L507.869 477.607L482.865 449.271L468.697 431.769L321.174 402.6L314.506 408.434L339.51 435.103Z" fill="#535461"/>
<path d="M314.506 408.434L480.365 446.771L481.199 406.767L433.691 388.432L338.677 372.598H311.173L314.506 408.434Z" fill="#D6D6E3"/>
<path d="M434.525 181.749L603.717 192.583V160.913L592.049 90.0742L586.215 85.0738L417.022 90.0742L434.525 181.749Z" fill="#D6D6E3"/>
<path d="M394.519 22.5686H386.184L384.517 83.407L412.021 93.4078L428.691 180.915L352.846 335.928L307.005 371.764V405.934L334.51 433.436L336.176 559.28L344.511 560.947L342.844 435.937L315.34 406.767L314.506 371.764L358.68 336.762L436.192 181.749L419.522 93.4078L392.018 81.7402L394.519 22.5686Z" fill="#D6D6E3"/>
<path d="M387.851 22.5686H379.516L377.849 83.407L405.354 93.4078L422.023 180.915L346.178 335.928L300.338 371.764V405.934L327.842 433.436L329.509 559.28L337.843 560.947L336.176 435.937L308.672 406.767L307.839 371.764L353.679 336.762L429.524 181.749L412.855 93.4078L385.351 81.7402L387.851 22.5686Z" fill="#535461"/>
<path d="M387.434 77.1565L391.602 82.9903L414.938 93.8245L599.967 88.8241L582.047 83.407L562.878 75.073L565.378 68.4057L387.434 77.1565Z" fill="#A8A8A8"/>
<path d="M356.18 339.262L525.372 366.764L559.544 294.258L606.218 190.083L434.525 181.749L356.18 339.262Z" fill="#FE46A5"/>
<g opacity="0.1">
<path opacity="0.1" d="M443.693 211.751L557.877 220.918L498.701 337.595L387.851 320.927L443.693 211.751Z" fill="white"/>
</g>
<g opacity="0.1">
<path opacity="0.1" d="M451.569 220.227L456.612 220.635L454.003 225.777L449.11 225.044L451.569 220.227Z" fill="white"/>
</g>
<g opacity="0.1">
<path opacity="0.1" d="M452.403 268.564L457.445 268.973L454.836 274.115L449.944 273.381L452.403 268.564Z" fill="white"/>
</g>
<g opacity="0.1">
<path opacity="0.1" d="M479.907 226.061L484.949 226.469L482.34 231.611L477.448 230.878L479.907 226.061Z" fill="white"/>
</g>
<g opacity="0.1">
<path opacity="0.1" d="M532.415 228.561L537.457 228.969L534.848 234.111L529.956 233.378L532.415 228.561Z" fill="white"/>
</g>
<g opacity="0.1">
<path opacity="0.1" d="M461.571 235.228L466.613 235.636L464.004 240.778L459.112 240.045L461.571 235.228Z" fill="white"/>
</g>
<g opacity="0.1">
<path opacity="0.1" d="M479.907 286.066L484.949 286.474L482.34 291.616L477.448 290.883L479.907 286.066Z" fill="white"/>
</g>
<g opacity="0.1">
<path opacity="0.1" d="M434.9 256.896L439.942 257.305L437.334 262.447L432.441 261.714L434.9 256.896Z" fill="white"/>
</g>
<g opacity="0.1">
<path opacity="0.1" d="M511.578 226.061L516.621 226.469L514.012 231.611L509.12 230.878L511.578 226.061Z" fill="white"/>
</g>
<g opacity="0.1">
<path opacity="0.1" d="M471.572 254.396L476.615 254.805L474.006 259.947L469.113 259.213L471.572 254.396Z" fill="white"/>
</g>
<g opacity="0.1">
<path opacity="0.1" d="M465.738 222.727L470.78 223.135L468.172 228.277L463.279 227.544L465.738 222.727Z" fill="white"/>
</g>
<g opacity="0.1">
<path opacity="0.1" d="M491.575 251.896L496.618 252.304L494.009 257.447L489.116 256.713L491.575 251.896Z" fill="white"/>
</g>
<g opacity="0.1">
<path opacity="0.1" d="M497.409 226.061L502.452 226.469L499.843 231.611L494.951 230.878L497.409 226.061Z" fill="white"/>
</g>
<g opacity="0.1">
<path opacity="0.1" d="M444.901 237.728L449.944 238.137L447.335 243.279L442.443 242.545L444.901 237.728Z" fill="white"/>
</g>
<path d="M311.173 372.598L476.198 405.934L521.655 366.164L356.596 338.012L311.173 372.598Z" fill="#D6D6E3"/>
<path d="M342.011 430.936V560.947L505.369 617.618L507.869 482.607L501.202 470.048L471.197 462.605L342.011 430.936Z" fill="#535461"/>
<path d="M363.264 354.263C367.177 354.263 370.348 352.397 370.348 350.096C370.348 347.795 367.177 345.929 363.264 345.929C359.351 345.929 356.18 347.795 356.18 350.096C356.18 352.397 359.351 354.263 363.264 354.263Z" fill="#575988"/>
<path d="M369.098 363.43C373.011 363.43 376.183 361.565 376.183 359.263C376.183 356.962 373.011 355.096 369.098 355.096C365.186 355.096 362.014 356.962 362.014 359.263C362.014 361.565 365.186 363.43 369.098 363.43Z" fill="#FA595F"/>
<path d="M349.095 360.93C353.008 360.93 356.18 359.065 356.18 356.763C356.18 354.462 353.008 352.596 349.095 352.596C345.182 352.596 342.011 354.462 342.011 356.763C342.011 359.065 345.182 360.93 349.095 360.93Z" fill="#FFD037"/>
<path d="M439.109 369.264C443.021 369.264 446.193 367.399 446.193 365.097C446.193 362.796 443.021 360.93 439.109 360.93C435.196 360.93 432.024 362.796 432.024 365.097C432.024 367.399 435.196 369.264 439.109 369.264Z" fill="#575988"/>
<path d="M424.94 376.765C428.853 376.765 432.024 374.899 432.024 372.598C432.024 370.296 428.853 368.431 424.94 368.431C421.027 368.431 417.856 370.296 417.856 372.598C417.856 374.899 421.027 376.765 424.94 376.765Z" fill="#FFD037"/>
<path d="M398.269 365.097C404.023 365.097 408.688 362.858 408.688 360.097C408.688 357.335 404.023 355.096 398.269 355.096C392.515 355.096 387.851 357.335 387.851 360.097C387.851 362.858 392.515 365.097 398.269 365.097Z" fill="#A8A8A8"/>
<path d="M446.61 378.432C450.523 378.432 453.694 376.566 453.694 374.265C453.694 371.963 450.523 370.098 446.61 370.098C442.697 370.098 439.526 371.963 439.526 374.265C439.526 376.566 442.697 378.432 446.61 378.432Z" fill="#FA595F"/>
<path d="M401.186 359.272H396.186L391.885 342.67C391.704 341.972 391.686 341.241 391.831 340.535C391.977 339.828 392.282 339.164 392.724 338.594C393.165 338.023 393.732 337.562 394.38 337.244C395.027 336.926 395.739 336.761 396.461 336.762C397.714 336.762 398.916 337.259 399.802 338.146C400.689 339.032 401.186 340.234 401.186 341.487V359.272Z" fill="#A8A8A8"/>
<path d="M473.281 378.432C479.035 378.432 483.699 376.193 483.699 373.431C483.699 370.67 479.035 368.431 473.281 368.431C467.527 368.431 462.862 370.67 462.862 373.431C462.862 376.193 467.527 378.432 473.281 378.432Z" fill="#A8A8A8"/>
<path d="M476.198 372.606H471.197L466.896 356.005C466.716 355.306 466.697 354.576 466.843 353.869C466.988 353.163 467.293 352.499 467.735 351.928C468.177 351.358 468.743 350.896 469.391 350.579C470.039 350.261 470.751 350.096 471.472 350.096C472.725 350.096 473.928 350.594 474.814 351.48C475.7 352.366 476.198 353.568 476.198 354.821V372.606Z" fill="#A8A8A8"/>
<path d="M393.685 22.5685L565.378 8.4007L561.211 70.9059L389.518 79.24L393.685 22.5685Z" fill="#535461"/>
<path d="M564.545 8.4007L643.723 14.2345L632.888 544.279L511.62 622.202L503.285 616.368L502.869 477.607L476.198 447.604V405.934L522.872 365.097L602.05 189.249L590.799 88.8241H596.633L559.544 75.9063L564.545 8.4007Z" fill="#D6D6E3"/>
<path d="M572.046 9.2341L652.058 14.2345L641.223 544.279L511.203 621.785V477.607L484.532 447.604V405.934L531.206 365.097L610.385 189.249L596.216 88.4074L567.878 75.9063L572.046 9.2341Z" fill="#535461"/>
<path d="M431.283 330.344C419.614 354.513 390.893 348.246 390.893 348.246C389.41 346.871 380.125 344.571 373.082 342.979C368.565 341.954 364.973 341.237 364.973 341.237L374.832 327.494L382.225 329.011L393.252 331.278C393.252 331.278 442.993 306.184 431.283 330.344Z" fill="url(#paint1_linear)"/>
<g opacity="0.08">
<path opacity="0.08" d="M431.283 330.344C419.614 354.513 390.893 348.246 390.893 348.246C389.41 346.871 380.125 344.571 373.082 342.979C368.565 341.954 364.973 341.237 364.973 341.237L374.832 327.494L382.225 329.011L393.252 331.278C393.252 331.278 442.993 306.184 431.283 330.344Z" fill="url(#paint2_linear)"/>
</g>
<g opacity="0.1">
<path opacity="0.1" d="M382.233 329.011L373.065 342.987C368.548 341.962 364.956 341.245 364.956 341.245L374.816 327.502L382.233 329.011Z" fill="url(#paint3_linear)"/>
</g>
<path d="M279.734 279.057C279.734 279.057 322.716 346.221 368.74 346.062L381.242 326.894C381.242 326.894 339.119 296.808 333.518 281.124C331.451 275.29 327.183 267.297 322.633 259.455C308.656 235.428 270.958 251.121 279.243 277.523C279.404 278.045 279.568 278.557 279.734 279.057Z" fill="url(#paint4_linear)"/>
<g opacity="0.05">
<path opacity="0.05" d="M279.734 279.057C279.734 279.057 322.716 346.221 368.74 346.062L381.242 326.894C381.242 326.894 339.119 296.808 333.518 281.124C331.451 275.29 327.183 267.297 322.633 259.455C308.656 235.428 270.958 251.121 279.243 277.523C279.404 278.045 279.568 278.557 279.734 279.057Z" fill="url(#paint5_linear)"/>
</g>
<path d="M251.755 669.448L253.772 692.783C253.772 692.783 319.791 681.815 319.215 659.889C318.64 637.962 251.755 669.448 251.755 669.448Z" fill="url(#paint6_linear)"/>
<g opacity="0.1">
<path opacity="0.1" d="M251.755 669.448L253.772 692.783C253.772 692.783 319.791 681.815 319.215 659.889C318.64 637.962 251.755 669.448 251.755 669.448Z" fill="url(#paint7_linear)"/>
</g>
<path d="M329.017 676.757L327.867 697C327.867 697 419.548 690.249 416.08 671.164C412.613 652.08 364.189 662.697 364.189 662.697L329.017 676.757Z" fill="url(#paint8_linear)"/>
<path d="M330.167 478.823C330.167 478.823 324.75 493.825 317.832 511.009C311.214 527.461 303.23 545.954 297.304 555.297C285.194 574.415 283.468 633.461 283.468 633.461C281.16 643.02 292.695 661.58 292.695 661.58C269.633 685.749 248.296 671.706 248.296 671.706C252.33 664.397 245.413 643.587 245.413 643.587C245.413 643.587 254.639 547.429 260.415 542.929C266.191 538.428 270.791 515.935 270.791 515.935L265.632 439.495L264.449 421.994L314.031 400.067L317.607 417.502L321.149 434.761L330.167 478.823Z" fill="url(#paint9_linear)"/>
<g opacity="0.1">
<path opacity="0.1" d="M330.167 478.823C330.167 478.823 324.75 493.825 317.832 511.009C311.214 527.461 303.23 545.954 297.304 555.297C285.194 574.415 283.468 633.461 283.468 633.461C281.16 643.02 292.695 661.58 292.695 661.58C269.633 685.749 248.296 671.706 248.296 671.706C252.33 664.397 245.413 643.587 245.413 643.587C245.413 643.587 254.639 547.429 260.415 542.929C266.191 538.428 270.791 515.935 270.791 515.935L265.632 439.495L264.449 421.994L314.031 400.067L317.607 417.502L321.149 434.761L330.167 478.823Z" fill="url(#paint10_linear)"/>
</g>
<path d="M373.407 664.956C363.031 682.949 326.733 680.699 326.733 680.699V627.836C326.733 627.836 316.357 568.789 322.124 555.33C327.892 541.87 319.816 517.093 319.816 517.093L317.832 511.018L294.32 438.512L287.502 417.493H365.339C365.339 417.493 365.339 421.094 365.339 426.944C365.439 449.446 365.906 505.209 368.198 518.152C371.082 534.461 363.006 545.146 363.006 545.146C363.006 545.146 367.615 611.501 363.581 632.303C359.547 653.105 373.407 664.956 373.407 664.956Z" fill="url(#paint11_linear)"/>
<path d="M309.414 170.664C309.414 170.664 297.304 203.275 273.092 215.085C248.88 226.894 312.873 230.269 312.873 230.269C312.873 230.269 323.249 205.526 346.886 188.091L309.414 170.664Z" fill="url(#paint12_linear)"/>
<g opacity="0.1">
<path opacity="0.1" d="M365.364 426.977C355.713 428.836 338.635 432.02 321.141 434.786C311.973 436.237 302.705 437.57 294.32 438.537C281.418 440.029 270.625 440.654 265.624 439.487L264.44 421.985L314.023 400.058L317.599 417.493H365.339C365.339 417.493 365.339 421.127 365.364 426.977Z" fill="url(#paint13_linear)"/>
</g>
<path d="M373.407 423.71C373.407 423.71 275.967 443.395 263.865 437.212C251.763 431.028 248.863 415.285 252.33 397.85C255.797 380.415 252.33 337.12 245.988 282.007C242.795 254.255 249.83 235.628 257.614 223.977C261.031 218.955 265.631 214.851 271.01 212.027C276.388 209.203 282.378 207.746 288.452 207.784C298.991 207.741 309.235 211.266 317.515 217.785C319.949 219.727 322.408 221.319 324.416 221.86C326 222.285 328.384 223.969 331.084 226.261C343.109 236.616 350.657 251.224 352.146 267.022C353.146 277.498 354.204 290.691 354.721 304.025C355.252 315.413 355.135 326.821 354.371 338.195C353.835 346.522 354.232 354.883 355.554 363.122C360.047 393.508 373.407 423.71 373.407 423.71Z" fill="url(#paint14_linear)"/>
<g opacity="0.1">
<path opacity="0.1" d="M355.563 363.164C320.199 341.645 301.913 281.44 301.913 281.44C301.913 280.915 301.913 280.398 301.855 279.89C301.063 252.279 341.719 246.962 348.62 273.756C350.862 282.482 352.787 291.333 353.187 297.45C353.405 299.701 353.924 301.912 354.729 304.025C355.26 315.413 355.143 326.821 354.379 338.195C353.841 346.536 354.238 354.911 355.563 363.164Z" fill="url(#paint15_linear)"/>
</g>
<g opacity="0.1">
<path opacity="0.1" d="M303.355 190.066C309.106 199.575 313.656 209.151 325.333 210.776C331.066 203.502 337.73 197.013 345.153 191.474L307.647 174.04C307.647 174.04 309.847 179.99 303.355 190.066Z" fill="url(#paint16_linear)"/>
</g>
<path d="M332.476 207.767C353.493 207.767 370.532 191.152 370.532 170.656C370.532 150.16 353.493 133.545 332.476 133.545C311.458 133.545 294.42 150.16 294.42 170.656C294.42 191.152 311.458 207.767 332.476 207.767Z" fill="url(#paint17_linear)"/>
<g opacity="0.1">
<path opacity="0.1" d="M370.09 182.299C371.665 182.366 373.223 181.953 374.557 181.115C376.383 179.79 376.966 177.415 377.383 175.231C378.375 170.073 379.15 164.639 377.383 159.672C376.241 156.388 374.049 153.546 372.515 150.429C369.098 143.62 368.49 135.428 363.614 129.519C360.572 125.819 349.879 129.519 345.411 127.652C335.81 123.619 331.642 115.435 321.182 115.443C317.349 115.35 313.523 115.827 309.831 116.86C305.155 118.302 301.021 121.027 297.179 124.019C290.511 129.202 283.977 136.32 284.569 144.637C284.952 149.946 288.194 154.638 290.103 159.588C293.303 167.922 292.72 177.29 290.411 185.924C289.428 189.599 288.302 193.991 290.911 196.8C292.578 198.558 295.22 199.058 297.579 198.675C299.931 198.154 302.183 197.253 304.247 196.008C307.997 194.016 311.798 191.991 314.832 189.066C316.84 187.132 318.457 184.849 320.366 182.824C324.103 178.951 328.334 175.588 332.951 172.823C336.643 170.606 340.452 171.989 344.328 173.431C352.846 176.556 360.722 182.465 370.09 182.299Z" fill="url(#paint18_linear)"/>
</g>
<path d="M369.515 181.732C371.09 181.799 372.647 181.386 373.982 180.548C375.808 179.223 376.391 176.848 376.808 174.665C377.799 169.506 378.575 164.072 376.808 159.105C375.666 155.821 373.474 152.979 371.94 149.863C368.523 143.054 367.915 134.861 363.039 128.952C359.997 125.252 349.879 129.519 345.411 127.644C335.81 123.61 331.067 114.868 320.607 114.876C316.774 114.783 312.948 115.26 309.256 116.293C304.58 117.735 300.446 120.46 296.604 123.452C289.936 128.636 283.402 135.753 283.993 144.07C284.377 149.379 287.619 154.071 289.528 159.022C292.728 167.356 292.145 176.723 289.836 185.357C288.853 189.032 287.727 193.425 290.336 196.233C292.003 197.992 294.645 198.492 297.004 198.108C299.356 197.587 301.608 196.686 303.671 195.441C307.422 193.45 311.223 191.424 314.256 188.499C316.265 186.566 317.882 184.282 319.791 182.257C323.527 178.384 327.759 175.022 332.376 172.256C336.068 170.039 339.877 171.423 343.753 172.864C352.271 175.99 360.147 181.899 369.515 181.732Z" fill="url(#paint19_linear)"/>
<g opacity="0.05">
<path opacity="0.05" d="M355.563 363.164C354.241 354.925 353.844 346.564 354.379 338.237C355.143 326.863 355.26 315.454 354.729 304.067C354.213 290.733 353.162 277.54 352.154 267.064C350.658 251.249 343.091 236.63 331.042 226.277C328.367 223.985 325.983 222.294 324.375 221.877C322.366 221.344 319.907 219.743 317.474 217.802C309.289 211.276 319.691 223.985 322.366 226.277C334.415 236.63 341.982 251.249 343.478 267.064C344.478 277.54 345.536 290.733 346.053 304.067C346.584 315.454 346.467 326.863 345.703 338.237C345.167 346.564 345.564 354.925 346.886 363.164C351.37 393.525 364.731 423.71 364.731 423.71C364.731 423.71 299.504 436.887 269.15 438.287C292.937 439.953 373.374 423.71 373.374 423.71C373.374 423.71 360.047 393.508 355.563 363.164Z" fill="url(#paint20_linear)"/>
</g>
<path d="M435.1 368.606C417.222 388.849 391.285 375.356 391.285 375.356C390.226 373.64 381.908 369.014 375.566 365.647C371.49 363.489 368.223 361.855 368.223 361.855L381.483 351.171L388.193 354.555L398.194 359.605C398.194 359.605 452.994 348.362 435.1 368.606Z" fill="url(#paint21_linear)"/>
<g opacity="0.1">
<path opacity="0.1" d="M388.193 354.555L375.566 365.647C371.49 363.489 368.223 361.855 368.223 361.855L381.483 351.171L388.193 354.555Z" fill="url(#paint22_linear)"/>
</g>
<path d="M303.071 279.757C303.071 279.757 326.133 355.671 370.532 367.481L387.826 352.296C387.826 352.296 355.479 312.343 354.346 295.766C353.937 289.641 352.021 280.765 349.779 272.073C342.877 245.287 302.221 250.596 303.013 278.207C303.03 278.718 303.049 279.235 303.071 279.757Z" fill="url(#paint23_linear)"/>
<path opacity="0.05" d="M258.39 353.705C258.39 353.705 273.392 341.895 287.219 350.896C301.046 359.897 321.232 358.772 324.116 359.33" fill="url(#paint24_linear)"/>
<path d="M426.965 329.111C415.839 352.68 388.526 346.612 388.526 346.612C387.109 345.271 378.275 343.029 371.582 341.479C367.281 340.478 363.864 339.812 363.864 339.812L373.249 326.402L380.283 327.886L390.776 330.094C390.776 330.094 438.092 305.534 426.965 329.111Z" fill="#F7C4A7"/>
<path opacity="0.08" d="M426.965 329.111C415.839 352.68 388.526 346.612 388.526 346.612C387.109 345.271 378.275 343.029 371.582 341.479C367.281 340.478 363.864 339.812 363.864 339.812L373.249 326.402L380.283 327.886L390.776 330.094C390.776 330.094 438.092 305.534 426.965 329.111Z" fill="black"/>
<path opacity="0.1" d="M380.283 327.802L371.582 341.437C367.281 340.437 363.864 339.77 363.864 339.77L373.249 326.361L380.283 327.802Z" fill="black"/>
<path d="M282.743 279.065C282.743 279.065 323.65 344.604 367.44 344.437L379.35 325.769C379.35 325.769 339.269 296.417 333.934 281.107C331.967 275.456 327.909 267.622 323.583 259.988C310.248 236.553 274.409 251.863 282.285 277.623C282.435 278.096 282.588 278.576 282.743 279.065Z" fill="#575988"/>
<path opacity="0.05" d="M282.743 279.065C282.743 279.065 323.65 344.604 367.44 344.437L379.35 325.769C379.35 325.769 339.269 296.417 333.934 281.107C331.967 275.456 327.909 267.622 323.583 259.988C310.248 236.553 274.409 251.863 282.285 277.623C282.435 278.096 282.588 278.576 282.743 279.065Z" fill="black"/>
<path d="M256.114 659.972L258.031 682.74C258.031 682.74 320.857 672.04 320.307 650.646C319.757 629.253 256.114 659.972 256.114 659.972Z" fill="#535461"/>
<path opacity="0.1" d="M256.114 659.972L258.031 682.74C258.031 682.74 320.857 672.04 320.307 650.646C319.757 629.253 256.114 659.972 256.114 659.972Z" fill="black"/>
<path d="M329.642 667.106L328.542 686.866C328.542 686.866 415.789 680.282 412.496 661.63C409.204 642.979 363.114 653.396 363.114 653.396L329.642 667.106Z" fill="#535461"/>
<path d="M330.734 473.973C330.734 473.973 325.575 488.591 318.99 505.376C312.689 521.427 305.088 539.47 299.454 548.588C287.969 567.247 286.302 624.852 286.302 624.852C284.11 634.178 295.078 652.288 295.078 652.288C273.133 675.882 252.83 662.164 252.83 662.164C256.673 655.03 250.088 634.728 250.088 634.728C250.088 634.728 258.865 540.904 264.357 536.52C269.85 532.136 274.225 510.184 274.225 510.184L269.316 435.603L268.191 418.56L315.382 397.158L318.807 414.168L322.141 431.011L330.734 473.973Z" fill="#6A5C99"/>
<path opacity="0.1" d="M330.734 473.973C330.734 473.973 325.575 488.591 318.99 505.376C312.689 521.427 305.088 539.47 299.454 548.588C287.969 567.247 286.302 624.852 286.302 624.852C284.11 634.178 295.078 652.288 295.078 652.288C273.133 675.882 252.83 662.164 252.83 662.164C256.673 655.03 250.088 634.728 250.088 634.728C250.088 634.728 258.865 540.904 264.357 536.52C269.85 532.136 274.225 510.184 274.225 510.184L269.316 435.603L268.191 418.56L315.382 397.158L318.807 414.168L322.141 431.011L330.734 473.973Z" fill="black"/>
<path d="M371.89 655.58C362.014 673.14 327.442 670.94 327.442 670.94V619.36C327.442 619.36 317.565 561.747 323.049 548.579C328.534 535.411 320.857 511.268 320.857 511.268L318.99 505.367L296.612 434.661L290.128 414.16H364.206C364.206 414.16 364.206 417.668 364.206 423.385C364.297 445.329 364.747 499.75 366.931 512.376C369.673 528.286 361.989 538.712 361.989 538.712C361.989 538.712 366.381 603.451 362.539 623.719C358.697 643.987 371.89 655.58 371.89 655.58Z" fill="#6A5C99"/>
<path d="M310.981 173.306C310.981 173.306 299.454 205.126 276.409 216.643C253.364 228.161 314.273 231.461 314.273 231.461C314.273 231.461 324.15 207.292 346.645 190.308L310.981 173.306Z" fill="#F7C4A7"/>
<path opacity="0.1" d="M364.231 423.394C355.046 425.177 338.81 428.311 322.141 431.011C313.423 432.428 304.597 433.728 296.612 434.67C284.335 436.12 274.059 436.737 269.3 435.595L268.174 418.552L315.365 397.15L318.807 414.168H364.239C364.239 414.168 364.206 417.677 364.231 423.394Z" fill="black"/>
<path d="M371.89 420.177C371.89 420.177 279.159 439.345 267.641 433.345C256.123 427.344 253.372 411.943 256.664 394.941C259.956 377.94 256.664 335.686 250.63 281.915C247.588 254.838 254.289 236.67 261.69 225.294C264.878 220.423 269.23 216.425 274.353 213.66C279.475 210.895 285.207 209.451 291.028 209.459C301.093 209.424 310.862 212.865 318.682 219.202C320.999 221.093 323.341 222.652 325.25 223.177C326.758 223.585 329.025 225.235 331.567 227.469C343.094 237.687 350.282 251.923 351.662 267.264C352.621 277.482 353.621 290.358 354.113 303.375C354.62 314.485 354.512 325.614 353.787 336.711C353.278 344.835 353.655 352.989 354.913 361.03C359.172 390.749 371.89 420.177 371.89 420.177Z" fill="#575988"/>
<path opacity="0.1" d="M354.904 361.13C321.249 340.137 303.846 281.39 303.846 281.39C303.846 280.882 303.847 280.373 303.788 279.882C303.038 252.946 341.727 247.754 348.295 273.898C350.429 282.415 352.254 291.041 352.637 297.017C352.844 299.21 353.337 301.368 354.104 303.434C354.612 314.543 354.503 325.672 353.779 336.77C353.266 344.907 353.644 353.075 354.904 361.13Z" fill="black"/>
<path opacity="0.1" d="M305.222 192.233C310.689 201.509 315.023 210.859 326.142 212.434C331.577 205.357 337.918 199.025 345.003 193.6L309.339 176.59C309.339 176.59 311.398 182.407 305.222 192.233Z" fill="black"/>
<path d="M332.934 209.518C352.935 209.518 369.148 193.305 369.148 173.306C369.148 153.307 352.935 137.095 332.934 137.095C312.934 137.095 296.72 153.307 296.72 173.306C296.72 193.305 312.934 209.518 332.934 209.518Z" fill="#F7C4A7"/>
<path opacity="0.1" d="M368.731 184.657C370.235 184.718 371.72 184.31 372.982 183.49C374.716 182.199 375.274 179.873 375.666 177.748C376.608 172.748 377.333 167.414 375.666 162.564C374.582 159.355 372.524 156.588 371.032 153.546C367.773 146.879 367.198 138.912 362.564 133.144C359.663 129.536 349.495 133.144 345.236 131.319C336.068 127.386 332.134 119.402 322.183 119.41C318.522 119.316 314.868 119.783 311.348 120.793C306.897 122.194 302.963 124.877 299.312 127.777C292.945 132.836 286.744 139.778 287.311 147.896C287.677 153.079 290.761 157.613 292.578 162.48C295.629 170.631 295.078 179.757 292.87 188.174C291.936 191.758 290.861 196.041 293.345 198.792C294.895 200.5 297.445 201 299.721 200.617C301.976 200.11 304.13 199.231 306.097 198.017C309.664 196.075 313.281 194.1 316.165 191.249C318.074 189.357 319.616 187.132 321.432 185.157C324.976 181.389 329.003 178.107 333.409 175.398C336.927 173.239 340.535 174.565 344.244 175.99C352.321 179.057 359.813 184.824 368.731 184.657Z" fill="black"/>
<path d="M368.181 184.107C369.683 184.172 371.168 183.771 372.432 182.957C374.166 181.665 374.724 179.34 375.116 177.215C376.058 172.214 376.783 166.881 375.116 162.03C374.032 158.822 371.974 156.055 370.482 153.013C367.223 146.346 366.648 138.378 362.014 132.611C359.113 129.002 349.512 133.169 345.236 131.336C336.068 127.402 331.584 118.835 321.633 118.835C317.971 118.741 314.318 119.208 310.798 120.218C306.347 121.619 302.413 124.302 298.762 127.202C292.395 132.261 286.194 139.203 286.761 147.321C287.127 152.504 290.211 157.038 292.028 161.905C295.078 170.056 294.528 179.182 292.32 187.599C291.386 191.183 290.311 195.466 292.795 198.217C294.345 199.925 296.895 200.425 299.171 200.042C301.426 199.535 303.58 198.656 305.547 197.441C309.114 195.5 312.731 193.525 315.615 190.674C317.524 188.782 319.065 186.557 320.882 184.582C324.464 180.817 328.531 177.547 332.976 174.856C336.493 172.698 340.102 174.023 343.811 175.448C351.77 178.49 359.263 184.274 368.181 184.107Z" fill="#632652"/>
<path opacity="0.05" d="M354.904 361.13C353.66 353.096 353.293 344.95 353.812 336.837C354.537 325.739 354.645 314.61 354.138 303.5C353.646 290.483 352.646 277.615 351.687 267.389C350.307 252.048 343.119 237.812 331.592 227.594C329.05 225.352 326.783 223.71 325.275 223.302C323.366 222.777 321.024 221.219 318.707 219.327C310.914 212.959 320.816 225.361 323.366 227.594C334.893 237.812 342.081 252.048 343.461 267.389C344.419 277.607 345.42 290.483 345.911 303.5C346.419 314.61 346.31 325.739 345.586 336.837C345.076 344.96 345.454 353.114 346.711 361.155C350.979 390.774 363.697 420.227 363.697 420.227C363.697 420.227 301.621 433.078 272.742 434.453C295.379 436.12 371.924 420.227 371.924 420.227C371.924 420.227 359.172 390.749 354.904 361.13Z" fill="black"/>
<path d="M430.599 366.439C413.588 386.191 388.926 373.023 388.926 373.023C387.926 371.356 380.008 366.831 373.924 363.555C370.048 361.447 366.939 359.855 366.939 359.855L379.558 349.429L385.942 352.763L395.485 357.672C395.485 357.672 447.61 346.687 430.599 366.439Z" fill="#F7C4A7"/>
<path opacity="0.1" d="M385.959 352.73L373.941 363.564C370.065 361.455 366.956 359.863 366.956 359.863L379.575 349.438L385.959 352.73Z" fill="black"/>
<path d="M304.947 279.748C304.947 279.748 326.892 353.821 369.123 365.339L385.584 350.521C385.584 350.521 354.746 311.543 353.721 295.366C353.329 289.391 351.512 280.757 349.37 272.248C342.802 246.112 304.113 251.296 304.872 278.232C304.899 278.732 304.924 279.237 304.947 279.748Z" fill="#575988"/>
<path opacity="0.05" d="M262.423 351.896C262.423 351.896 276.692 340.37 289.861 349.154C303.03 357.938 322.233 356.838 324.975 357.388" fill="black"/>
</g>
<defs>
<linearGradient id="paint0_linear" x1="476.198" y1="622.21" x2="476.198" y2="5.49213" gradientUnits="userSpaceOnUse">
<stop stop-color="#808080" stop-opacity="0.25"/>
<stop offset="0.54" stop-color="#808080" stop-opacity="0.12"/>
<stop offset="1" stop-color="#808080" stop-opacity="0.1"/>
</linearGradient>
<linearGradient id="paint1_linear" x1="35995" y1="13446.6" x2="35995" y2="12428.1" gradientUnits="userSpaceOnUse">
<stop stop-color="#808080" stop-opacity="0.25"/>
<stop offset="0.54" stop-color="#808080" stop-opacity="0.12"/>
<stop offset="1" stop-color="#808080" stop-opacity="0.1"/>
</linearGradient>
<linearGradient id="paint2_linear" x1="35995" y1="13446.6" x2="35995" y2="12428.1" gradientUnits="userSpaceOnUse">
<stop stop-color="#808080" stop-opacity="0.25"/>
<stop offset="0.54" stop-color="#808080" stop-opacity="0.12"/>
<stop offset="1" stop-color="#808080" stop-opacity="0.1"/>
</linearGradient>
<linearGradient id="paint3_linear" x1="8878.52" y1="7192.92" x2="8878.52" y2="6905.21" gradientUnits="userSpaceOnUse">
<stop stop-color="#808080" stop-opacity="0.25"/>
<stop offset="0.54" stop-color="#808080" stop-opacity="0.12"/>
<stop offset="1" stop-color="#808080" stop-opacity="0.1"/>
</linearGradient>
<linearGradient id="paint4_linear" x1="45678.4" y1="44275.8" x2="45678.4" y2="32644.8" gradientUnits="userSpaceOnUse">
<stop stop-color="#808080" stop-opacity="0.25"/>
<stop offset="0.54" stop-color="#808080" stop-opacity="0.12"/>
<stop offset="1" stop-color="#808080" stop-opacity="0.1"/>
</linearGradient>
<linearGradient id="paint5_linear" x1="45678.4" y1="44275.8" x2="45678.4" y2="32644.8" gradientUnits="userSpaceOnUse">
<stop stop-color="#808080" stop-opacity="0.25"/>
<stop offset="0.54" stop-color="#808080" stop-opacity="0.12"/>
<stop offset="1" stop-color="#808080" stop-opacity="0.1"/>
</linearGradient>
<linearGradient id="paint6_linear" x1="26361.7" y1="35744.2" x2="26361.7" y2="33760.5" gradientUnits="userSpaceOnUse">
<stop stop-color="#808080" stop-opacity="0.25"/>
<stop offset="0.54" stop-color="#808080" stop-opacity="0.12"/>
<stop offset="1" stop-color="#808080" stop-opacity="0.1"/>
</linearGradient>
<linearGradient id="paint7_linear" x1="26361.7" y1="35744.2" x2="26361.7" y2="33760.5" gradientUnits="userSpaceOnUse">
<stop stop-color="#808080" stop-opacity="0.25"/>
<stop offset="0.54" stop-color="#808080" stop-opacity="0.12"/>
<stop offset="1" stop-color="#808080" stop-opacity="0.1"/>
</linearGradient>
<linearGradient id="paint8_linear" x1="43673.7" y1="32997.2" x2="43673.7" y2="31331.1" gradientUnits="userSpaceOnUse">
<stop stop-color="#808080" stop-opacity="0.25"/>
<stop offset="0.54" stop-color="#808080" stop-opacity="0.12"/>
<stop offset="1" stop-color="#808080" stop-opacity="0.1"/>
</linearGradient>
<linearGradient id="paint9_linear" x1="33281.9" y1="232724" x2="33281.9" y2="141529" gradientUnits="userSpaceOnUse">
<stop stop-color="#808080" stop-opacity="0.25"/>
<stop offset="0.54" stop-color="#808080" stop-opacity="0.12"/>
<stop offset="1" stop-color="#808080" stop-opacity="0.1"/>
</linearGradient>
<linearGradient id="paint10_linear" x1="33281.9" y1="232724" x2="33281.9" y2="141529" gradientUnits="userSpaceOnUse">
<stop stop-color="#808080" stop-opacity="0.25"/>
<stop offset="0.54" stop-color="#808080" stop-opacity="0.12"/>
<stop offset="1" stop-color="#808080" stop-opacity="0.1"/>
</linearGradient>
<linearGradient id="paint11_linear" x1="38169.8" y1="223879" x2="38169.8" y2="140707" gradientUnits="userSpaceOnUse">
<stop stop-color="#808080" stop-opacity="0.25"/>
<stop offset="0.54" stop-color="#808080" stop-opacity="0.12"/>
<stop offset="1" stop-color="#808080" stop-opacity="0.1"/>
</linearGradient>
<linearGradient id="paint12_linear" x1="33015.5" y1="18536.8" x2="33015.5" y2="14273.8" gradientUnits="userSpaceOnUse">
<stop stop-color="#808080" stop-opacity="0.25"/>
<stop offset="0.54" stop-color="#808080" stop-opacity="0.12"/>
<stop offset="1" stop-color="#808080" stop-opacity="0.1"/>
</linearGradient>
<linearGradient id="paint13_linear" x1="42885.6" y1="22815.6" x2="42885.6" y2="20893.9" gradientUnits="userSpaceOnUse">
<stop stop-color="#808080" stop-opacity="0.25"/>
<stop offset="0.54" stop-color="#808080" stop-opacity="0.12"/>
<stop offset="1" stop-color="#808080" stop-opacity="0.1"/>
</linearGradient>
<linearGradient id="paint14_linear" x1="53528.2" y1="128872" x2="53528.2" y2="65047.2" gradientUnits="userSpaceOnUse">
<stop stop-color="#808080" stop-opacity="0.25"/>
<stop offset="0.54" stop-color="#808080" stop-opacity="0.12"/>
<stop offset="1" stop-color="#808080" stop-opacity="0.1"/>
</linearGradient>
<linearGradient id="paint15_linear" x1="23878.3" y1="50272.8" x2="23878.3" y2="36544.7" gradientUnits="userSpaceOnUse">
<stop stop-color="#808080" stop-opacity="0.25"/>
<stop offset="0.54" stop-color="#808080" stop-opacity="0.12"/>
<stop offset="1" stop-color="#808080" stop-opacity="0.1"/>
</linearGradient>
<linearGradient id="paint16_linear" x1="18424.5" y1="10634" x2="18424.5" y2="9015.02" gradientUnits="userSpaceOnUse">
<stop stop-color="#808080" stop-opacity="0.25"/>
<stop offset="0.54" stop-color="#808080" stop-opacity="0.12"/>
<stop offset="1" stop-color="#808080" stop-opacity="0.1"/>
</linearGradient>
<linearGradient id="paint17_linear" x1="30656.1" y1="18638.1" x2="30656.1" y2="12027" gradientUnits="userSpaceOnUse">
<stop stop-color="#808080" stop-opacity="0.25"/>
<stop offset="0.54" stop-color="#808080" stop-opacity="0.12"/>
<stop offset="1" stop-color="#808080" stop-opacity="0.1"/>
</linearGradient>
<linearGradient id="paint18_linear" x1="41813.4" y1="22653.1" x2="41813.4" y2="14315.8" gradientUnits="userSpaceOnUse">
<stop stop-color="#808080" stop-opacity="0.25"/>
<stop offset="0.54" stop-color="#808080" stop-opacity="0.12"/>
<stop offset="1" stop-color="#808080" stop-opacity="0.1"/>
</linearGradient>
<linearGradient id="paint19_linear" x1="41747.1" y1="22596.6" x2="41747.1" y2="14259.3" gradientUnits="userSpaceOnUse">
<stop stop-color="#808080" stop-opacity="0.25"/>
<stop offset="0.54" stop-color="#808080" stop-opacity="0.12"/>
<stop offset="1" stop-color="#808080" stop-opacity="0.1"/>
</linearGradient>
<linearGradient id="paint20_linear" x1="45084.5" y1="124316" x2="45084.5" y2="64928.7" gradientUnits="userSpaceOnUse">
<stop stop-color="#808080" stop-opacity="0.25"/>
<stop offset="0.54" stop-color="#808080" stop-opacity="0.12"/>
<stop offset="1" stop-color="#808080" stop-opacity="0.1"/>
</linearGradient>
<linearGradient id="paint21_linear" x1="37614.8" y1="14289" x2="37614.8" y2="13308.3" gradientUnits="userSpaceOnUse">
<stop stop-color="#808080" stop-opacity="0.25"/>
<stop offset="0.54" stop-color="#808080" stop-opacity="0.12"/>
<stop offset="1" stop-color="#808080" stop-opacity="0.1"/>
</linearGradient>
<linearGradient id="paint22_linear" x1="10318.5" y1="7163.23" x2="10318.5" y2="6911.78" gradientUnits="userSpaceOnUse">
<stop stop-color="#808080" stop-opacity="0.25"/>
<stop offset="0.54" stop-color="#808080" stop-opacity="0.12"/>
<stop offset="1" stop-color="#808080" stop-opacity="0.1"/>
</linearGradient>
<linearGradient id="paint23_linear" x1="39230.6" y1="53660.4" x2="39230.6" y2="38349.3" gradientUnits="userSpaceOnUse">
<stop stop-color="#808080" stop-opacity="0.25"/>
<stop offset="0.54" stop-color="#808080" stop-opacity="0.12"/>
<stop offset="1" stop-color="#808080" stop-opacity="0.1"/>
</linearGradient>
<linearGradient id="paint24_linear" x1="26150.8" y1="5818.46" x2="26150.8" y2="5651.01" gradientUnits="userSpaceOnUse">
<stop stop-color="#808080" stop-opacity="0.25"/>
<stop offset="0.54" stop-color="#808080" stop-opacity="0.12"/>
<stop offset="1" stop-color="#808080" stop-opacity="0.1"/>
</linearGradient>
<clipPath id="clip0">
<rect width="926" height="697" fill="white"/>
</clipPath>
</defs>
</svg>
